<?xml version="1.0" encoding="UTF-8"?>
<svg width="69px" height="40px" viewBox="0 0 69 40" version="1.1" xmlns="http://www.w3.org/2000/svg" xmlns:xlink="http://www.w3.org/1999/xlink">
    <!-- Generator: Sketch 48.2 (47327) - http://www.bohemiancoding.com/sketch -->
    <title>logomark@1x</title>
    <desc>Created with Sketch.</desc>
    <defs></defs>
    <g id="GLOBALNAV" stroke="none" stroke-width="1" fill="none" fill-rule="evenodd" transform="translate(-1332.000000, -860.000000)">
        <g transform="translate(30.000000, 50.000000)" fill="#000000" id="logomark">
            <path d="M1347.3532,832.930986 L1330.28434,850 L1330.28434,810 L1370.28419,810 L1347.35718,832.92701 C1351.26333,829.023616 1357.59311,829.023616 1361.49651,832.928234 C1365.40265,836.83438 1365.40265,843.165696 1361.49651,847.070619 C1357.59189,850.97646 1351.26057,850.97646 1347.35443,847.070619 C1343.45103,843.165696 1343.44981,836.837133 1347.3532,832.930986 Z M1313.21836,832.933372 L1330.28416,849.999174 L1302,849.999174 L1302,821.715014 L1313.20888,832.92389 C1311.40277,831.11503 1310.28515,828.617372 1310.28515,825.85698 C1310.28515,820.334971 1314.76051,815.858088 1320.28405,815.858088 C1325.80758,815.858088 1330.28416,820.334971 1330.28416,825.85698 C1330.28416,831.380212 1325.80758,835.857094 1320.28405,835.857094 C1317.52518,835.857094 1315.02752,834.739479 1313.21836,832.933372 Z"></path>
        </g>
    </g>
</svg>