<?xml version="1.0" encoding="UTF-8"?>
<svg width="550px" height="80px" viewBox="0 0 550 80" version="1.1" xmlns="http://www.w3.org/2000/svg" xmlns:xlink="http://www.w3.org/1999/xlink">
    <!-- Generator: Sketch 48.2 (47327) - http://www.bohemiancoding.com/sketch -->
    <title>RUDIMENT@2x</title>
    <desc>Created with Sketch.</desc>
    <defs></defs>
    <g id="GLOBALNAV" stroke="none" stroke-width="1" fill="none" fill-rule="evenodd" transform="translate(-446.000000, -50.000000)">
        <g transform="translate(30.000000, 50.000000)" fill="#000000" id="RUDIMENT">
            <path d="M897.357649,0.0578738399 L965.165479,0.0615444852 L965.165479,13.1510654 L937.803266,13.1510654 L937.803266,78.8164616 L924.714968,78.8164616 L924.714968,13.1510654 L897.357649,13.1461712 L897.357649,0.0578738399 Z M874.254853,52.6859947 L874.254853,0.0575067754 L887.338256,0.0575067754 L887.338256,76.8229342 L887.338256,78.8160946 L874.254853,78.8160946 L872.627534,78.8160946 L844.08582,26.1937244 L844.08582,78.8160946 L830.997522,78.8160946 L830.997522,2.05678488 L830.997522,0.0575067754 L845.711916,0.0575067754 L874.254853,52.6859947 Z M762.704434,0.0577514851 L818.784551,0.0577514851 L818.784551,13.1460489 L775.787837,13.1460489 L775.787837,32.8904496 L808.625429,32.8953438 L808.625429,45.978747 L775.787837,45.978747 L775.787837,65.7280419 L818.784551,65.7280419 L818.784551,78.8163393 L762.704434,78.8163393 L762.704434,0.0577514851 Z M738.782104,0.0577514851 L749.406175,0.0577514851 L749.406175,78.8163393 L736.314207,78.8163393 L736.314207,34.7600316 L714.617023,78.922788 L706.572192,78.922788 L684.84809,34.745349 L684.84809,78.8163393 L671.758569,78.8163393 L671.758569,0.0577514851 L682.375299,0.0577514851 L710.592772,57.4360543 L738.782104,0.0577514851 Z M645.372748,78.8156051 L645.372748,0.057017356 L658.461045,0.057017356 L658.461045,78.8156051 L645.372748,78.8156051 Z M593.780238,0.0553043883 C604.299084,0.0553043883 614.189026,4.15052093 621.625753,11.5872482 C629.06248,19.0276461 633.161368,28.9151408 633.161368,39.4376571 C633.161368,49.9552793 629.06248,59.8415505 621.625753,67.2819484 C614.189026,74.7198992 604.302755,78.8138922 593.780238,78.8138922 L557.141081,78.8138922 L557.141081,0.0553043883 L593.780238,0.0553043883 Z M593.780238,65.7255948 C608.27684,65.7255948 620.07307,53.9342587 620.07307,39.4376571 C620.068176,24.9410556 608.27684,13.1436018 593.780238,13.1436018 L570.229379,13.1436018 L570.229379,65.7255948 L593.780238,65.7255948 Z M531.229262,51.7653968 L531.229262,0.0533467108 L544.31756,0.0533467108 L544.31756,51.7653968 C544.31756,67.3179207 531.681975,79.9706348 516.140463,80 L516.032791,80 C500.491279,79.9706348 487.850801,67.3179207 487.850801,51.7653968 L487.850801,0.0533467108 L500.939098,0.0533467108 L500.939098,51.7653968 C500.939098,60.1185618 507.733462,66.9129262 516.086627,66.9129262 C524.438569,66.9129262 531.229262,60.1185618 531.229262,51.7653968 Z M477.846702,22.9929218 C477.846702,35.672554 467.532188,45.9858435 454.852556,45.9858435 L441.61621,45.9858435 L474.360812,78.8650365 L455.820383,78.8650365 L429.104204,51.9959133 L429.104204,78.8650365 L416.002447,78.8650365 L416,55.968775 L416,0 L454.862345,0 C467.538306,0.00611774206 477.846702,10.3169602 477.846702,22.9929218 Z M429.104204,32.8791929 L454.852556,32.8791929 C460.304688,32.8791929 464.743722,28.4450535 464.743722,22.9929218 C464.743722,17.54079 460.304688,13.1066506 454.852556,13.1066506 L429.104204,13.1066506 L429.104204,32.8791929 Z"></path>
        </g>
    </g>
</svg>