<?xml version="1.0" encoding="UTF-8"?>
<svg width="32px" height="32px" viewBox="0 0 32 32" version="1.1" xmlns="http://www.w3.org/2000/svg" xmlns:xlink="http://www.w3.org/1999/xlink">
    <!-- Generator: Sketch 48.2 (47327) - http://www.bohemiancoding.com/sketch -->
    <title>ru-ig@1x</title>
    <desc>Created with Sketch.</desc>
    <defs></defs>
    <g id="D-02-home-menu-b" stroke="none" stroke-width="1" fill="none" fill-rule="evenodd" transform="translate(-681.000000, -638.000000)">
        <g id="MENU">
            <g id="Social-Icons" transform="translate(644.000000, 638.000000)">
                <g id="ru-ig" transform="translate(37.000000, 0.000000)">
                    <circle id="btn" fill="#000000" cx="16" cy="16" r="16"></circle>
                    <path d="M15.9999861,9 C14.0989141,9 13.8605056,9.0080581 13.113909,9.0421244 C12.3688128,9.07610734 11.8599856,9.19445023 11.4147062,9.36750483 C10.9544221,9.54636681 10.5640212,9.7857201 10.1748706,10.1748706 C9.78569231,10.564049 9.54636681,10.9544221 9.36747704,11.4147062 C9.19442245,11.8599856 9.07610734,12.3688128 9.04209661,13.113909 C9.00803031,13.8605334 9,14.0988864 9,15.9999861 C9,17.9010859 9.00803031,18.1394666 9.04209661,18.886091 C9.07610734,19.6311594 9.19442245,20.1400144 9.36747704,20.585266 C9.54636681,21.0455501 9.78569231,21.435951 10.1748706,21.8251016 C10.5640212,22.2142799 10.9544221,22.4536054 11.4147062,22.632523 C11.8599856,22.8055498 12.3688128,22.9238927 13.113909,22.9579034 C13.8605056,22.9919419 14.0989141,23 15.9999861,23 C17.9010859,23 18.1394388,22.9919419 18.8860633,22.9579034 C19.6311594,22.9238927 20.1399866,22.8055498 20.585266,22.632523 C21.0455779,22.4536054 21.435951,22.2142799 21.8251016,21.8251016 C22.2142799,21.435951 22.4536054,21.0455779 22.6324952,20.585266 C22.8055498,20.1400144 22.9238927,19.6311594 22.9578756,18.886091 C22.9919419,18.1394666 23,17.9010859 23,15.9999861 C23,14.0989141 22.9919419,13.8605334 22.9578756,13.113909 C22.9238927,12.3688128 22.8055498,11.8599856 22.6324952,11.4147062 C22.4536054,10.9544221 22.2142799,10.564049 21.8251016,10.1748706 C21.435951,9.7857201 21.0455779,9.54636681 20.585266,9.36750483 C20.1399866,9.19445023 19.6311594,9.07610734 18.8860633,9.0421244 C18.1394388,9.0080581 17.9010859,9 15.9999861,9 M15.9999861,10.261259 C17.8690758,10.261259 18.0904512,10.2683724 18.8285729,10.3020497 C19.511066,10.3331984 19.8817107,10.4472343 20.1283718,10.5430979 C20.4551138,10.6700824 20.6883263,10.8217692 20.9332647,11.0667076 C21.178203,11.3116737 21.3298898,11.5448584 21.4569021,11.8716004 C21.5527379,12.1182615 21.6667738,12.4889062 21.6979226,13.1713993 C21.7315721,13.9095211 21.7387132,14.1309242 21.7387132,15.9999861 C21.7387132,17.8690758 21.7315721,18.0904789 21.6979226,18.8285729 C21.6667738,19.5110938 21.5527379,19.8817385 21.4569021,20.1283996 C21.3298898,20.4551138 21.178203,20.6883263 20.9332647,20.9332647 C20.6883263,21.1782308 20.4551138,21.3299176 20.1283718,21.4569021 C19.8817107,21.5527379 19.511066,21.6668016 18.8285729,21.6979226 C18.0905623,21.7315998 17.8692147,21.738741 15.9999861,21.738741 C14.1307575,21.738741 13.9094099,21.7315998 13.1713993,21.6979226 C12.4889062,21.6668016 12.1182337,21.5527379 11.8715726,21.4569021 C11.5448584,21.3299176 11.3116459,21.1782308 11.0667076,20.9332647 C10.8217692,20.6883263 10.6700546,20.4551138 10.5430701,20.1283996 C10.4472343,19.8817385 10.3331984,19.5110938 10.3020497,18.8286007 C10.2683724,18.0904789 10.261259,17.8690758 10.261259,15.9999861 C10.261259,14.1309242 10.2683724,13.9095211 10.3020497,13.1713993 C10.3331984,12.4889062 10.4472343,12.1182615 10.5430701,11.8716004 C10.6700546,11.5448584 10.8217692,11.3116737 11.0667076,11.0667353 C11.3116459,10.8217692 11.5448584,10.6700824 11.8715726,10.5430979 C12.1182337,10.4472343 12.4889062,10.3331984 13.1713715,10.3020497 C13.9095211,10.2683724 14.1308965,10.261259 15.9999861,10.261259 Z M15.9999861,18.3333333 C14.7113296,18.3333333 13.6666389,17.2886426 13.6666389,15.9999861 C13.6666389,14.7113296 14.7113296,13.6666667 15.9999861,13.6666667 C17.2886426,13.6666667 18.3333333,14.7113296 18.3333333,15.9999861 C18.3333333,17.2886426 17.2886426,18.3333333 15.9999861,18.3333333 Z M15.9999861,12.4054077 C14.0147487,12.4054077 12.4053799,14.0147487 12.4053799,15.9999861 C12.4053799,17.9852513 14.0147487,19.5945923 15.9999861,19.5945923 C17.9852235,19.5945923 19.5945646,17.9852513 19.5945646,15.9999861 C19.5945646,14.0147487 17.9852235,12.4054077 15.9999861,12.4054077 Z M20.5765994,12.2633851 C20.5765994,11.7994609 20.2005363,11.4233979 19.7366121,11.4233979 C19.272688,11.4233979 18.8965971,11.7994609 18.8965971,12.2633851 C18.8965971,12.7273092 19.272688,13.1033723 19.7366121,13.1033723 C20.2005363,13.1033723 20.5765994,12.7273092 20.5765994,12.2633851 Z" id="ru-instagram-icon" fill="#FFFFFF"></path>
                </g>
            </g>
        </g>
    </g>
</svg>