<?xml version="1.0" encoding="UTF-8"?>
<svg width="32px" height="32px" viewBox="0 0 32 32" version="1.1" xmlns="http://www.w3.org/2000/svg" xmlns:xlink="http://www.w3.org/1999/xlink">
    <!-- Generator: Sketch 48.2 (47327) - http://www.bohemiancoding.com/sketch -->
    <title>ru-tw@1x</title>
    <desc>Created with Sketch.</desc>
    <defs></defs>
    <g id="D-02-home-menu-b" stroke="none" stroke-width="1" fill="none" fill-rule="evenodd" transform="translate(-755.000000, -638.000000)">
        <g id="MENU">
            <g id="Social-Icons" transform="translate(644.000000, 638.000000)">
                <g id="ru-tw" transform="translate(111.000000, 0.000000)">
                    <circle id="btn" fill="#000000" cx="16" cy="16" r="16"></circle>
                    <path d="M14.03168,23.0009402 C20.06944,23.0009402 23.37184,17.9987002 23.37184,13.6607802 C23.37184,13.5187002 23.37184,13.3772602 23.36224,13.2364602 C24.0046921,12.7717631 24.5592675,12.196383 25,11.5372602 C24.4008826,11.8027333 23.7653307,11.9768305 23.11456,12.0537402 C23.7998362,11.6434887 24.312719,10.9982343 24.55776,10.2380602 C23.9133808,10.6204316 23.2084135,10.8899079 22.47328,11.0348602 C21.455733,9.95287252 19.8388604,9.68805223 18.5293115,10.3888953 C17.2197627,11.0897384 16.543216,12.5819486 16.87904,14.0287802 C14.2396133,13.8964599 11.7804645,12.6497871 10.1136,10.5990202 C9.24231856,12.0989528 9.68735225,14.0178102 11.12992,14.9811002 C10.6075144,14.965617 10.0964988,14.8246926 9.64,14.5702202 C9.64,14.5836602 9.64,14.5977402 9.64,14.6118202 C9.64042761,16.1744397 10.741921,17.5203227 12.2736,17.8297402 C11.7903165,17.9615418 11.2832516,17.9808085 10.79136,17.8860602 C11.2214067,19.2232908 12.4538077,20.1393619 13.85824,20.1657402 C12.6958304,21.0792966 11.2598781,21.5752299 9.78144,21.5737402 C9.52025828,21.5732388 9.2593306,21.557425 9,21.5263802 C10.501207,22.4897572 12.2479446,23.000759 14.03168,22.9983802" id="ru-twitter-icon" fill="#FFFFFF" fill-rule="nonzero"></path>
                </g>
            </g>
        </g>
    </g>
</svg>